<svg version="1.0" xmlns="http://www.w3.org/2000/svg" width="32" height="30.667" viewBox="0 0 24 23"><path d="M5.7.7C5.3 1 5 2.2 5 3.2 5 4.5 4.3 5 2.5 5 .5 5 0 5.5 0 7.5V10h24V7.5c0-1.8-.5-2.5-2-2.5-1.3 0-2-.7-2-2 0-2.7-2.5-3.6-5.6-2-1.9 1.1-2.7 1.1-3.6.2C9.5-.1 6.7-.4 5.7.7zM9.5 4c.3.5.2 1-.4 1-.5 0-1.3-.5-1.6-1-.3-.6-.2-1 .4-1 .5 0 1.3.4 1.6 1zm8 0c-.3.5-1.1 1-1.6 1-.6 0-.7-.5-.4-1 .3-.6 1.1-1 1.6-1 .6 0 .7.4.4 1zM2 17v6h20V11h-3.2c-3 0-3.1 0-1.3 2 2.4 2.6.5 2.6-2.9-.1l-2.6-2-2.9 2c-3.7 2.7-4.9 2.7-2.6.1 1.8-2 1.7-2-1.3-2H2v6z"/></svg>